<svg width="1024" height="1024" viewBox="0 0 120 120" xmlns="http://www.w3.org/2000/svg">
  <defs>
    <linearGradient id="iconBg" x1="0" y1="0" x2="0.6" y2="1">
      <stop offset="0%" stop-color="#2A1610"/>
      <stop offset="100%" stop-color="#180C08"/>
    </linearGradient>
    <radialGradient id="bodyG" cx="38%" cy="30%" r="65%">
      <stop offset="0%"   stop-color="#E8A88A"/>
      <stop offset="45%"  stop-color="#B85840"/>
      <stop offset="100%" stop-color="#7A2E1C"/>
    </radialGradient>
    <radialGradient id="earG" cx="38%" cy="28%" r="72%">
      <stop offset="0%"   stop-color="#D4957A"/>
      <stop offset="100%" stop-color="#9A3E28"/>
    </radialGradient>
    <radialGradient id="glow" cx="35%" cy="25%" r="60%">
      <stop offset="0%"   stop-color="#C0624A" stop-opacity="0.25"/>
      <stop offset="100%" stop-color="#C0624A" stop-opacity="0"/>
    </radialGradient>
    <linearGradient id="sheen" x1="0" y1="0" x2="0" y2="1">
      <stop offset="0%"   stop-color="white" stop-opacity="0.12"/>
      <stop offset="50%"  stop-color="white" stop-opacity="0"/>
    </linearGradient>
  </defs>
  <rect width="120" height="120" fill="url(#iconBg)"/>
  <rect width="120" height="120" fill="url(#glow)"/>
  <rect width="120" height="60" fill="url(#sheen)"/>
  <ellipse cx="33" cy="24" rx="9" ry="13" fill="url(#earG)" transform="rotate(-18 33 24)"/>
  <ellipse cx="87" cy="24" rx="9" ry="13" fill="url(#earG)" transform="rotate(18 87 24)"/>
  <circle cx="60" cy="67" r="36" fill="url(#bodyG)"/>
  <ellipse cx="48" cy="51" rx="11" ry="6" fill="white" opacity="0.16" transform="rotate(-14 48 51)"/>
  <ellipse cx="49" cy="63" rx="8.5" ry="9.5" fill="white"/>
  <ellipse cx="71" cy="63" rx="8.5" ry="9.5" fill="white"/>
  <circle cx="50.5" cy="64" r="5" fill="#1C0C06"/>
  <circle cx="72.5" cy="64" r="5" fill="#1C0C06"/>
  <circle cx="52.2" cy="61.5" r="1.7" fill="white"/>
  <circle cx="74.2" cy="61.5" r="1.7" fill="white"/>
  <path d="M 52 76 Q 60 82 68 76" stroke="#1C0C06" stroke-width="2" stroke-linecap="round" fill="none" opacity="0.5"/>
  <circle cx="88" cy="92" r="13" fill="#1C0C06" opacity="0.75"/>
  <rect x="85" y="83.5" width="6" height="9" rx="3" fill="white"/>
  <path d="M 82 89.5 Q 82 95.5 88 95.5 Q 94 95.5 94 89.5" stroke="white" stroke-width="1.6" fill="none" stroke-linecap="round"/>
  <line x1="88" y1="95.5" x2="88" y2="98.5" stroke="white" stroke-width="1.6" stroke-linecap="round"/>
</svg>
