<svg width="1024" height="1024" viewBox="0 0 120 120" xmlns="http://www.w3.org/2000/svg">
  <defs>
    <radialGradient id="iconBg" cx="35%" cy="25%" r="75%">
      <stop offset="0%"   stop-color="#2C1208"/>
      <stop offset="100%" stop-color="#110604"/>
    </radialGradient>
    <radialGradient id="ib" cx="35%" cy="28%" r="68%">
      <stop offset="0%"   stop-color="#EAB090"/>
      <stop offset="35%"  stop-color="#C86040"/>
      <stop offset="70%"  stop-color="#9A3820"/>
      <stop offset="100%" stop-color="#621808"/>
    </radialGradient>
    <radialGradient id="ie" cx="45%" cy="35%" r="60%">
      <stop offset="0%"  stop-color="#2A1008"/>
      <stop offset="100%" stop-color="#120604"/>
    </radialGradient>
    <radialGradient id="ispec" cx="50%" cy="50%" r="50%">
      <stop offset="0%"   stop-color="white" stop-opacity="0.2"/>
      <stop offset="100%" stop-color="white" stop-opacity="0"/>
    </radialGradient>
    <linearGradient id="ileg" x1="0" y1="0" x2="0" y2="1">
      <stop offset="0%" stop-color="#9A3820"/>
      <stop offset="100%" stop-color="#621808"/>
    </linearGradient>
    <radialGradient id="iglow" cx="40%" cy="30%" r="60%">
      <stop offset="0%"   stop-color="#C05A3C" stop-opacity="0.3"/>
      <stop offset="100%" stop-color="#C05A3C" stop-opacity="0"/>
    </radialGradient>
  </defs>
  <!-- BG -->
  <rect width="120" height="120" fill="url(#iconBg)"/>
  <rect width="120" height="120" fill="url(#iglow)"/>
  <!-- Antennae -->
  <path d="M 51 30 C 50 22 45 14 47 8" stroke="#C05A3C" stroke-width="2" stroke-linecap="round" fill="none"/>
  <circle cx="47" cy="7" r="2.8" fill="#D4856A"/>
  <path d="M 69 30 C 70 22 75 14 73 8" stroke="#C05A3C" stroke-width="2" stroke-linecap="round" fill="none"/>
  <circle cx="73" cy="7" r="2.8" fill="#D4856A"/>
  <!-- Arms -->
  <ellipse cx="20" cy="62" rx="12" ry="10" fill="#9A3820"/>
  <ellipse cx="100" cy="62" rx="12" ry="10" fill="#9A3820"/>
  <!-- Legs -->
  <rect x="43" y="88" width="12" height="20" rx="5" fill="url(#ileg)"/>
  <rect x="65" y="88" width="12" height="20" rx="5" fill="url(#ileg)"/>
  <!-- Body -->
  <circle cx="60" cy="58" r="42" fill="url(#ib)"/>
  <!-- Specular -->
  <ellipse cx="44" cy="38" rx="18" ry="12" fill="url(#ispec)" transform="rotate(-20 44 38)"/>
  <!-- Eyes -->
  <circle cx="48" cy="57" r="12" fill="url(#ie)"/>
  <circle cx="72" cy="57" r="12" fill="url(#ie)"/>
  <circle cx="51.5" cy="53" r="4" fill="#FFD060" opacity="0.95"/>
  <circle cx="75.5" cy="53" r="4" fill="#FFD060" opacity="0.95"/>
  <!-- Mic badge -->
  <circle cx="91" cy="85" r="12" fill="#0E0604" opacity="0.85"/>
  <rect x="88.5" y="77" width="5" height="8.5" rx="2.5" fill="white"/>
  <path d="M 86 83 Q 86 89.5 91 89.5 Q 96 89.5 96 83" stroke="white" stroke-width="1.5" fill="none" stroke-linecap="round"/>
  <line x1="91" y1="89.5" x2="91" y2="92" stroke="white" stroke-width="1.5" stroke-linecap="round"/>
</svg>
